<?xml version="1.0" standalone="no"?><!-- Generator: Gravit.io --><svg xmlns="http://www.w3.org/2000/svg" xmlns:xlink="http://www.w3.org/1999/xlink" style="isolation:isolate" viewBox="0 0 2000 1005.422" width="2000" height="1005.422"><g><g><path d=" M 1590.808 888.686 C 1595.635 888.686 1599.634 890.317 1602.863 893.535 C 1606.023 896.753 1607.644 900.798 1607.644 905.647 C 1607.644 910.508 1606.023 914.542 1602.863 917.76 C 1599.634 921.012 1595.635 922.632 1590.808 922.632 C 1586.005 922.632 1582.006 921.012 1578.776 917.76 C 1575.593 914.542 1573.996 910.508 1573.996 905.647 C 1573.996 900.798 1575.593 896.753 1578.776 893.535 C 1582.006 890.317 1586.005 888.686 1590.808 888.686 Z " fill="rgb(120,170,66)"/><path d=" M 73.536 796.903 L 141.889 796.903 L 107.54 708.566 L 73.536 796.903 Z  M 145.106 804.039 L 70.789 804.039 L 33.119 901.857 C 30.511 908.902 29.212 913.234 29.212 914.878 C 29.212 918.75 32.016 920.681 37.59 920.681 L 37.59 923.301 L 0 923.301 L 0 920.681 C 5.022 920.681 9.251 919.417 12.687 916.877 C 16.135 914.384 19.927 907.845 24.029 897.284 L 115.205 660.392 L 119.756 660.392 L 209.782 889.148 C 209.782 890.331 212.092 895.87 216.677 905.811 C 221.274 915.717 228.295 920.681 237.696 920.681 L 237.696 923.301 L 178.927 923.301 L 178.927 920.681 C 184.27 920.681 186.948 918.509 186.948 914.165 C 186.948 911.235 185.649 906.558 183.006 900.099 C 182.547 899.617 182.145 898.87 181.834 897.812 C 181.581 896.64 181.432 896.065 181.317 896.065 L 145.106 804.039 Z " fill="rgb(0,0,0)"/><path d=" M 302.676 671.638 L 302.676 792.784 L 329.061 792.784 C 349.826 792.784 365.202 787.751 375.258 777.696 C 385.29 767.652 390.335 754.436 390.335 738.095 C 390.335 722.179 385.382 707.148 375.522 692.944 C 365.651 678.752 348.275 671.638 323.407 671.638 L 302.676 671.638 Z  M 255.582 667.134 L 255.582 664.514 L 327.05 664.514 C 345.161 664.514 358.285 664.939 366.375 665.732 C 374.453 666.57 382.773 669.294 391.243 673.925 C 399.724 678.568 406.159 684.819 410.492 692.737 C 414.824 700.632 416.973 710.354 416.973 721.846 C 416.973 734.969 413.112 747.484 405.401 759.378 C 397.701 771.272 386.807 781.339 372.776 789.532 L 390.542 817.664 C 394.426 824.674 404.746 840.096 421.455 863.884 C 438.141 887.649 451.046 902.14 460.159 907.289 C 469.26 912.483 478.109 915.057 486.636 915.057 C 495.036 915.057 504.701 911.793 515.63 905.3 L 516.664 908.805 C 503.035 920.217 485.269 925.928 463.434 925.928 C 448.897 925.928 436.382 921.492 425.925 912.621 C 415.445 903.772 397.219 879.398 371.178 839.544 C 370.937 839.315 370.833 839.073 370.833 838.843 L 345.494 798.772 L 323.051 799.484 L 302.676 799.484 L 302.676 898.382 C 302.676 906.346 303.71 912.046 305.767 915.505 C 307.778 918.953 312.754 920.665 320.592 920.665 L 320.592 923.285 L 255.582 923.285 L 255.582 920.665 C 263.569 920.332 268.534 918.55 270.51 915.402 C 272.487 912.253 273.464 905.795 273.464 896.084 L 273.464 690.508 C 273.464 683.831 272.636 678.292 270.936 673.902 C 269.269 669.501 264.132 667.271 255.582 667.134 Z " fill="rgb(0,0,0)"/><path d=" M 625.107 913.925 C 642.437 913.925 659.502 909.133 676.361 899.56 C 693.242 890.022 706.503 876.841 716.191 860.063 C 725.867 843.297 730.694 826.059 730.694 808.339 C 730.694 782.654 723.959 759.395 710.468 738.56 C 696.965 717.738 679.865 701.764 659.1 690.606 C 638.369 679.481 619.591 673.885 602.744 673.885 C 577.796 673.885 555.134 683.573 534.816 702.936 C 514.464 722.3 504.294 746.329 504.294 775.059 C 504.294 811.579 516.682 843.825 541.47 871.865 C 566.246 899.905 594.137 913.925 625.107 913.925 Z  M 642.195 923.061 C 642.322 923.406 644.034 924.693 647.355 926.899 L 673.867 946.251 C 688.381 956.801 701.826 965.373 714.18 971.959 C 726.568 978.543 738.933 983.634 751.275 987.265 C 763.595 990.874 775.845 992.69 788.095 992.69 C 792.772 992.69 799.322 992.092 807.78 990.908 L 808.114 993.069 C 800.931 996.574 792.37 999.539 782.429 1001.894 C 772.489 1004.227 765.042 1005.422 760.009 1005.422 C 741.726 1005.422 717.811 998.527 688.266 984.726 C 658.721 970.901 630.853 951.951 604.732 927.807 C 566.959 927.807 537.575 915.545 516.544 891.01 C 495.48 866.499 484.965 838.895 484.965 808.201 C 484.965 784.792 490.389 761.659 501.295 738.779 C 512.178 715.922 528.301 697.064 549.687 682.228 C 571.062 667.427 596.504 660.014 626.027 660.014 C 661.479 660.014 690.415 671.161 712.812 693.432 C 735.187 715.738 746.414 743.456 746.414 776.633 C 746.414 809.786 737.543 840.355 719.834 868.268 C 702.125 896.205 676.245 914.453 642.195 923.061 Z " fill="rgb(0,0,0)"/><path d=" M 994.807 923.295 L 946.99 923.295 L 946.99 883.545 C 922.697 911.298 893.714 925.168 860.067 925.168 C 835.107 925.168 815.272 917.963 800.643 903.553 C 785.968 889.142 778.636 869.227 778.636 843.807 L 778.636 688.771 C 778.636 679.394 777.556 673.441 775.349 670.925 C 773.189 668.408 768.075 667.133 760.008 667.133 L 760.008 664.501 L 827.212 664.501 L 827.212 667.133 C 820.144 667.133 815.134 668.293 812.227 670.568 C 809.296 672.855 807.848 678.256 807.848 686.772 L 807.848 828.684 C 807.848 858.39 814.628 879.581 828.188 892.268 C 841.76 904.954 857.182 911.298 874.5 911.298 C 901.747 911.298 925.914 898.921 946.99 874.168 L 946.99 698.815 C 946.99 683.451 945.68 674.315 943.048 671.442 C 940.452 668.569 936.314 667.133 930.753 667.133 L 928.362 667.133 L 928.362 664.501 L 994.807 664.501 L 994.807 667.133 C 986.614 667.615 981.466 669.017 979.351 671.35 C 977.248 673.694 976.202 678.153 976.202 684.703 L 976.202 895.382 C 976.202 903.679 976.581 909.149 977.386 911.712 C 978.202 914.297 979.799 916.412 982.259 918.124 C 984.695 919.825 988.889 920.664 994.807 920.664 L 994.807 923.295 Z " fill="rgb(0,0,0)"/><path d=" M 1090.67 664.512 L 1090.67 667.144 C 1087.349 666.799 1083.671 667.328 1079.603 668.718 C 1075.546 670.12 1073.19 672.166 1072.421 674.855 C 1071.685 677.567 1071.317 683.922 1071.317 694.012 L 1071.317 892.578 C 1071.317 903.346 1071.754 909.93 1072.582 912.332 C 1073.455 914.722 1075.11 916.711 1077.557 918.308 C 1080.005 919.894 1084.361 920.675 1090.67 920.675 L 1090.67 923.307 L 1023.11 923.307 L 1023.11 920.675 C 1031.613 920.675 1036.911 919.009 1038.98 915.665 C 1041.071 912.332 1042.071 904.748 1042.071 892.922 L 1042.071 696.299 C 1042.071 683.991 1040.933 675.947 1038.669 672.154 C 1036.325 668.339 1031.165 666.673 1023.11 667.144 L 1023.11 664.512 L 1090.67 664.512 Z " fill="rgb(0,0,0)"/><path d=" M 1228.099 927.807 L 1224.847 927.807 L 1135.016 699.5 C 1128.65 683.423 1123.421 674.034 1119.307 671.276 C 1115.227 668.518 1111.022 667.139 1106.677 667.139 L 1106.677 664.508 L 1164.734 664.508 L 1164.734 667.139 C 1159.666 666.794 1157.08 668.84 1157.08 673.287 C 1157.08 675.034 1157.471 676.907 1158.115 678.907 L 1236.511 878.174 L 1313.955 679.056 C 1314.966 676.402 1315.483 674.241 1315.483 672.586 C 1315.483 668.61 1312.472 666.794 1306.404 667.139 L 1306.404 664.508 L 1344.384 664.508 L 1344.384 667.139 C 1341.764 667.139 1338.972 667.53 1336.076 668.288 C 1333.146 669.047 1330.135 672.069 1327.032 677.344 C 1323.964 682.619 1322.343 685.423 1322.229 685.756 L 1228.099 927.807 Z " fill="rgb(0,0,0)"/><path d=" M 1457.104 913.925 C 1474.433 913.925 1491.487 909.133 1508.369 899.549 C 1525.25 889.987 1538.489 876.806 1548.188 859.994 C 1557.864 843.205 1562.69 825.933 1562.69 808.178 C 1562.69 783.022 1556.174 760.188 1543.108 739.629 C 1530.1 719.071 1513.195 702.982 1492.361 691.352 C 1471.584 679.7 1452.369 673.885 1434.706 673.885 C 1409.77 673.885 1387.119 683.584 1366.813 702.982 C 1346.473 722.357 1336.303 746.444 1336.303 775.231 C 1336.303 812.016 1348.714 844.296 1373.547 872.152 C 1398.37 900.008 1426.214 913.925 1457.104 913.925 Z  M 1458.023 660.014 C 1493.372 660.014 1522.262 671.104 1544.705 693.272 C 1567.149 715.451 1578.399 743.1 1578.399 776.253 C 1578.399 818.957 1565.402 854.88 1539.408 884.046 C 1513.414 913.212 1478.938 927.807 1435.959 927.807 C 1401.082 927.807 1372.513 916.051 1350.288 892.527 C 1328.063 868.992 1316.962 840.78 1316.962 807.845 C 1316.962 785.631 1322.317 762.82 1333.004 739.388 C 1343.738 715.979 1359.872 696.914 1381.396 682.171 C 1402.943 667.381 1428.49 660.014 1458.023 660.014 Z " fill="rgb(0,0,0)"/><path d=" M 1631.972 667.329 L 1631.972 664.525 L 1703.864 664.525 C 1729.41 664.525 1748.016 667.455 1759.553 673.328 C 1771.126 679.2 1779.618 686.532 1784.916 695.3 C 1790.225 704.034 1792.88 715.594 1792.88 729.924 C 1792.88 751.885 1785.49 768.41 1770.723 779.431 C 1756.002 790.509 1735.984 795.784 1710.713 795.324 L 1710.713 792.497 C 1726.733 792.497 1739.776 787.475 1749.762 777.42 C 1759.772 767.399 1764.805 754.184 1764.805 737.808 C 1764.805 725.075 1762.38 713.779 1757.531 703.907 C 1752.704 694.036 1745.924 686.52 1737.167 681.395 C 1728.422 676.223 1715.057 673.672 1697.107 673.672 L 1679.192 673.672 L 1679.192 894.544 C 1679.192 907.047 1680.547 914.494 1683.214 916.884 C 1685.857 919.286 1690.936 920.481 1698.383 920.481 L 1698.383 923.285 L 1631.972 923.285 L 1631.972 920.481 C 1643.82 920.481 1649.795 914.93 1649.795 903.829 L 1649.795 689.945 C 1649.795 680.843 1648.6 674.787 1646.36 671.822 C 1644.073 668.823 1639.292 667.329 1631.972 667.329 Z " fill="rgb(120,170,66)"/><path d=" M 2000 664.528 L 1988.75 694.476 L 1986.083 694.476 C 1986.509 692.649 1986.762 690.167 1986.762 687.052 C 1986.762 684.421 1985.842 682.731 1983.992 681.996 C 1982.154 681.249 1979.257 680.87 1975.293 680.87 L 1911.18 680.87 L 1911.18 895.076 C 1911.18 903.913 1911.812 909.935 1913.157 913.187 C 1914.513 916.416 1916.306 918.45 1918.615 919.289 C 1920.902 920.151 1924.591 920.576 1929.728 920.576 L 1929.728 923.3 L 1864.099 923.3 L 1864.099 920.576 C 1872.315 920.002 1877.452 918.37 1879.543 915.647 C 1881.601 912.923 1882.658 907.269 1882.658 898.662 L 1882.658 680.87 L 1821.901 680.87 C 1815.753 680.87 1811.73 681.249 1809.869 681.996 C 1808.007 682.731 1807.088 684.604 1807.088 687.581 C 1807.088 689.098 1807.513 691.373 1808.387 694.476 L 1805.766 694.476 L 1793.827 664.528 L 1796.469 664.528 C 1798.469 668.367 1800.423 670.688 1802.353 671.492 C 1804.284 672.308 1808.432 672.688 1814.902 672.688 L 1977.258 672.688 C 1983.682 672.688 1988.302 672.308 1991.14 671.492 C 1993.967 670.688 1996.024 668.367 1997.369 664.528 L 2000 664.528 Z " fill="rgb(120,170,66)"/></g><g><path d=" M 1539.915 267.467 C 1543.917 270.341 1547.905 273.192 1551.913 276.074 C 1566.983 284.934 1577.142 302.075 1576.106 320.549 C 1575.949 323.18 1575.58 325.83 1574.949 328.514 C 1570.177 348.777 1552.79 364.023 1531.667 364.023 C 1351.208 364.023 1170.855 364.006 990.413 364.006 C 817.165 364.006 643.829 364.006 470.335 364.023 C 464.878 364.023 459.773 362.9 454.949 361.199 C 438.229 355.251 426.246 340.075 424.299 321.935 C 424.123 320.268 423.808 318.637 423.808 316.935 L 423.808 316.601 C 423.808 315.952 423.93 315.338 423.965 314.689 C 424.755 299.777 433.246 287.18 443.948 279.338 C 446.019 277.829 448.159 276.408 450.37 275.267 C 451.703 274.267 453.089 273.267 454.457 272.285 C 456.639 270.687 458.826 269.096 461 267.508 C 464.088 267.813 467.177 268.08 470.265 268.08 C 470.265 268.08 470.265 268.08 470.265 268.08 L 990.339 268.08 L 1261.032 268.08 L 1531.725 268.08 C 1531.725 268.08 1531.725 268.08 1531.97 268.08 C 1534.627 268.029 1537.273 267.786 1539.915 267.467 Z " fill="rgb(120,170,66)"/><path d=" M 1539.915 374.188 C 1543.917 377.062 1547.904 379.913 1551.913 382.795 C 1566.983 391.655 1577.142 408.796 1576.106 427.27 C 1575.949 429.901 1575.58 432.551 1574.949 435.235 C 1570.177 455.498 1552.79 470.744 1531.667 470.744 C 1351.208 470.744 1170.855 470.727 990.413 470.727 C 817.165 470.727 643.829 470.727 470.335 470.744 C 464.878 470.744 459.773 469.621 454.948 467.92 C 438.229 461.972 426.246 446.796 424.299 428.656 C 424.123 426.989 423.808 425.357 423.808 423.656 L 423.808 423.322 C 423.808 422.673 423.93 422.059 423.965 421.41 C 424.755 406.498 433.246 393.901 443.948 386.059 C 446.019 384.55 448.159 383.129 450.369 381.988 C 451.703 380.988 453.089 379.988 454.457 379.006 C 456.639 377.408 458.826 375.817 461 374.229 C 464.088 374.534 467.177 374.801 470.265 374.801 C 470.265 374.801 470.265 374.801 470.265 374.801 L 990.339 374.801 L 1261.032 374.801 L 1531.725 374.801 C 1531.725 374.801 1531.725 374.801 1531.97 374.801 C 1534.626 374.75 1537.273 374.507 1539.915 374.188 Z " fill="rgb(27,114,186)"/><path d=" M 1539.915 481.646 C 1543.917 484.52 1547.904 487.37 1551.913 490.253 C 1566.983 499.113 1577.142 516.254 1576.106 534.728 C 1575.949 537.359 1575.58 540.008 1574.949 542.693 C 1570.177 562.956 1552.79 578.202 1531.667 578.202 C 1351.208 578.202 1170.855 578.185 990.413 578.185 C 817.165 578.185 643.829 578.185 470.335 578.202 C 464.878 578.202 459.773 577.079 454.948 575.377 C 438.229 569.43 426.246 554.254 424.299 536.114 C 424.123 534.447 423.808 532.815 423.808 531.114 L 423.808 530.78 C 423.808 530.131 423.93 529.517 423.965 528.868 C 424.755 513.955 433.246 501.359 443.948 493.516 C 446.019 492.008 448.159 490.587 450.369 489.446 C 451.703 488.446 453.089 487.446 454.457 486.464 C 456.639 484.866 458.826 483.275 461 481.687 C 464.088 481.992 467.177 482.259 470.265 482.259 C 470.265 482.259 470.265 482.259 470.265 482.259 L 990.339 482.259 L 1261.032 482.259 L 1531.725 482.259 C 1531.725 482.259 1531.725 482.259 1531.97 482.259 C 1534.626 482.208 1537.273 481.965 1539.915 481.646 Z " fill="rgb(27,114,186)"/><path d=" M 454.962 253.004 C 459.787 254.723 464.892 255.829 470.348 255.829 C 643.842 255.811 817.178 255.811 990.427 255.811 C 1170.868 255.811 1351.222 255.829 1531.681 255.829 C 1552.804 255.829 1570.19 240.6 1574.962 220.319 C 1575.594 217.653 1575.962 214.986 1576.12 212.354 C 1577.155 193.898 1566.997 176.74 1551.927 167.88 C 1546.804 164.196 1541.716 160.564 1536.593 156.88 C 1530.558 152.529 1524.47 148.195 1518.4 143.862 C 1515.926 142.09 1513.435 140.318 1510.961 138.546 C 1453.767 97.563 1396.556 56.58 1339.344 15.597 C 1337.765 14.456 1336.187 13.316 1334.607 12.193 C 1331.853 8.702 1324.414 5.632 1314.87 3.421 C 1313.168 3.018 1311.537 2.596 1309.712 2.263 C 1301.782 0.825 1292.765 0 1283.747 0 L 994.707 0 L 716.159 0 C 707.527 0 699.247 0.93 691.58 2.246 C 689.001 2.684 686.194 3 683.86 3.561 C 679.053 4.719 674.895 6.105 671.597 7.649 C 668.544 9.053 666.228 10.614 664.948 12.228 C 664.404 12.614 663.86 13.018 663.316 13.404 L 660.263 15.614 C 626.807 39.72 593.385 63.843 559.929 87.949 C 542.104 100.809 524.261 113.668 506.436 126.546 C 502.822 129.195 499.138 131.809 495.471 134.441 C 485.489 141.581 475.436 148.651 465.629 155.932 C 461.962 158.652 458.208 161.371 454.471 164.09 C 453.102 165.09 451.716 166.073 450.383 167.09 C 448.172 168.213 446.032 169.634 443.962 171.143 C 433.26 178.985 424.768 191.599 423.979 206.494 C 423.944 207.144 423.821 207.758 423.821 208.407 L 423.821 208.74 C 423.821 210.442 424.137 212.073 424.312 213.758 C 426.26 231.898 438.242 247.074 454.962 253.004 Z " fill="rgb(27,114,186)"/><path d=" M 1531.676 221.583 C 1351.217 221.583 1170.863 221.565 990.439 221.565 C 817.173 221.565 643.837 221.565 470.343 221.583 C 464.905 221.583 459.782 220.46 454.957 218.758 C 442.361 214.267 432.465 204.53 427.518 192.249 C 425.676 196.705 424.255 201.389 423.992 206.495 C 423.957 207.144 423.834 207.74 423.816 208.407 L 423.816 208.74 C 423.816 210.442 424.15 212.074 424.325 213.74 C 426.255 231.881 438.255 247.057 454.957 253.004 C 459.782 254.706 464.905 255.829 470.343 255.829 C 643.837 255.811 817.173 255.811 990.439 255.811 C 1170.863 255.811 1351.217 255.829 1531.676 255.829 C 1552.799 255.829 1570.185 240.583 1574.957 220.319 C 1575.589 217.635 1575.975 214.986 1576.115 212.354 C 1576.519 205.424 1575.326 198.687 1572.905 192.494 C 1566.291 209.459 1550.501 221.583 1531.676 221.583 Z " fill="rgb(55,53,53)" fill-opacity="0.5"/><path d=" M 1531.676 329.777 C 1351.217 329.777 1170.863 329.76 990.439 329.76 C 817.173 329.76 643.837 329.76 470.343 329.777 C 464.905 329.777 459.782 328.672 454.957 326.952 C 442.361 322.479 432.465 312.742 427.518 300.443 C 425.676 304.9 424.255 309.601 423.992 314.689 C 423.957 315.338 423.834 315.952 423.816 316.601 L 423.816 316.935 C 423.816 318.637 424.15 320.268 424.325 321.935 C 426.255 340.075 438.255 355.251 454.957 361.199 C 459.782 362.9 464.905 364.023 470.343 364.023 C 643.837 364.006 817.173 364.006 990.439 364.006 C 1170.863 364.006 1351.217 364.023 1531.676 364.023 C 1552.799 364.023 1570.185 348.777 1574.957 328.514 C 1575.589 325.83 1575.975 323.18 1576.115 320.549 C 1576.519 313.619 1575.326 306.882 1572.905 300.689 C 1566.291 317.672 1550.501 329.777 1531.676 329.777 Z " fill="rgb(55,53,53)" fill-opacity="0.5"/><path d=" M 1531.676 436.498 C 1351.217 436.498 1170.863 436.481 990.439 436.481 C 817.173 436.481 643.837 436.481 470.343 436.498 C 464.905 436.498 459.782 435.375 454.957 433.674 C 442.361 429.182 432.465 419.445 427.518 407.164 C 425.676 411.62 424.255 416.305 423.992 421.41 C 423.957 422.059 423.834 422.656 423.816 423.322 L 423.816 423.656 C 423.816 425.358 424.15 426.989 424.325 428.656 C 426.255 446.797 438.255 461.972 454.957 467.92 C 459.782 469.621 464.905 470.744 470.343 470.744 C 643.837 470.727 817.173 470.727 990.439 470.727 C 1170.863 470.727 1351.217 470.744 1531.676 470.744 C 1552.799 470.744 1570.185 455.498 1574.957 435.235 C 1575.589 432.551 1575.975 429.901 1576.115 427.27 C 1576.519 420.34 1575.326 413.603 1572.905 407.41 C 1566.291 424.375 1550.501 436.498 1531.676 436.498 Z " fill="rgb(55,53,53)" fill-opacity="0.5"/><path d=" M 1531.676 543.956 C 1351.217 543.956 1170.863 543.938 990.439 543.938 C 817.173 543.938 643.837 543.938 470.343 543.956 C 464.905 543.956 459.782 542.833 454.957 541.131 C 442.361 536.64 432.465 526.903 427.518 514.622 C 425.676 519.078 424.255 523.763 423.992 528.868 C 423.957 529.517 423.834 530.114 423.816 530.78 L 423.816 531.114 C 423.816 532.815 424.15 534.447 424.325 536.114 C 426.255 554.254 438.255 569.43 454.957 575.378 C 459.782 577.079 464.905 578.202 470.343 578.202 C 643.837 578.185 817.173 578.185 990.439 578.185 C 1170.863 578.185 1351.217 578.202 1531.676 578.202 C 1552.799 578.202 1570.185 562.956 1574.957 542.693 C 1575.589 540.008 1575.975 537.359 1576.115 534.728 C 1576.519 527.798 1575.326 521.061 1572.905 514.868 C 1566.291 531.833 1550.501 543.956 1531.676 543.956 Z " fill="rgb(55,53,53)" fill-opacity="0.5"/></g></g></svg>